<svg xmlns="http://www.w3.org/2000/svg" version="1.1" xmlns:xlink="http://www.w3.org/1999/xlink" viewBox="0 0 200 200"><rect width="200" height="200" fill="url('#gradient')"></rect><defs><linearGradient id="gradient" gradientTransform="rotate(45 0.5 0.5)"><stop offset="0%" stop-color="#ceaa96"></stop><stop offset="100%" stop-color="#8fa983"></stop></linearGradient></defs><g><g fill="#445272" transform="matrix(4.287508722958828,0,0,4.287508722958828,8.501784818204058,130.48844370406073)" stroke="#c8512e" stroke-width="0.2"><path d="M6.74-4.46L6.74-14.22L10.16-14.22L10.16-4.46Q10.16-3.11 9.53-2.04Q8.90-0.98 7.77-0.39Q6.64 0.20 5.25 0.20L5.25 0.20Q2.93 0.20 1.64-0.98Q0.35-2.15 0.35-4.30L0.35-4.30L3.79-4.30Q3.79-3.32 4.13-2.88Q4.46-2.44 5.25-2.44L5.25-2.44Q5.97-2.44 6.35-2.97Q6.74-3.51 6.74-4.46L6.74-4.46ZM14.20-3.19L14.20-3.19Q14.98-3.19 15.50-2.73Q16.02-2.27 16.02-1.54Q16.02-0.82 15.50-0.36Q14.98 0.11 14.20 0.11L14.20 0.11Q13.41 0.11 12.90-0.36Q12.38-0.83 12.38-1.54Q12.38-2.26 12.90-2.72Q13.41-3.19 14.20-3.19ZM29.52-14.22L29.52-11.57L25.25-11.57L25.25 0L21.83 0L21.83-11.57L17.64-11.57L17.64-14.22L29.52-14.22ZM42.33-7.60L42.33-1.76Q41.54-0.88 40.02-0.34Q38.50 0.20 36.68 0.20L36.68 0.20Q33.89 0.20 32.22-1.51Q30.55-3.22 30.43-6.27L30.43-6.27L30.42-7.50Q30.42-9.60 31.16-11.17Q31.90-12.73 33.29-13.58Q34.67-14.42 36.48-14.42L36.48-14.42Q39.14-14.42 40.61-13.21Q42.08-11.99 42.32-9.58L42.32-9.58L39.02-9.58Q38.85-10.77 38.26-11.28Q37.68-11.79 36.60-11.79L36.60-11.79Q35.31-11.79 34.61-10.69Q33.91-9.60 33.90-7.57L33.90-7.57L33.90-6.71Q33.90-4.58 34.62-3.51Q35.35-2.44 36.91-2.44L36.91-2.44Q38.25-2.44 38.91-3.04L38.91-3.04L38.91-5.24L36.52-5.24L36.52-7.60L42.33-7.60Z"></path></g></g></svg>