<svg xmlns="http://www.w3.org/2000/svg" xmlns:xlink="http://www.w3.org/1999/xlink" version="1.1" id="Layer_1" x="0px" y="0px" width="100%" viewBox="0 0 1024 528" enable-background="new 0 0 1024 528" xml:space="preserve">
<path fill="#ffffff" opacity="1.000000" stroke="none" d=" M589.893188,301.315765   C574.970459,293.454956 567.454956,281.442291 567.700134,264.861511   C567.812561,257.257233 566.883850,249.606689 569.518616,242.123566   C575.567261,224.944656 593.127197,213.081421 609.533020,215.381012   C629.957458,218.243912 644.302673,233.241547 645.058228,252.929657   C645.305847,259.382294 645.542542,265.863800 644.528320,272.340729   C640.732239,296.582550 613.553467,312.869507 589.893188,301.315765  M610.799500,218.585968   C603.211914,215.725174 597.560669,219.029404 597.465515,227.122253   C597.205383,249.241364 597.274109,271.365814 597.402466,293.487061   C597.438721,299.730530 600.976318,302.978882 606.641724,302.816956   C612.138916,302.659821 614.863953,299.673340 614.885254,293.220032   C614.958130,271.098083 614.897217,248.975693 614.937561,226.853546   C614.943420,223.655350 614.090576,220.961075 610.799500,218.585968  z"/>
<path fill="#ffffff" opacity="1.000000" stroke="none" d=" M714.114258,238.069687   C710.404297,243.416443 706.896179,248.466309 702.988159,254.091858   C701.804688,251.256882 702.991150,250.053665 703.475647,248.725616   C705.659790,242.739120 707.214417,236.672623 706.960327,230.200455   C706.628296,221.743759 702.285400,217.340378 693.785339,217.217163   C691.786682,217.188187 689.783691,217.216293 687.787476,217.314804   C682.312805,217.584991 679.180908,220.255112 679.145325,225.593689   C678.992249,248.590332 678.979126,271.588898 679.109497,294.585663   C679.140869,300.118225 682.023743,302.594940 687.621460,302.948792   C702.564575,303.893402 711.622375,298.176605 718.424255,283.369568   C720.152039,279.608398 721.615906,275.725952 723.207642,271.883240   C725.158508,272.467834 724.335266,273.861328 724.332336,274.836639   C724.320129,278.832947 723.322571,282.941284 723.683899,286.759125   C724.482971,295.203796 719.457153,298.318909 713.000366,300.711365   C699.338440,305.773621 685.528015,307.654510 671.736389,301.476257   C658.069641,295.353882 650.659607,284.276367 649.087646,269.675934   C648.256226,261.954254 648.141785,254.041458 649.713623,246.273071   C653.719238,226.477005 673.605347,212.734589 693.675598,215.341934   C702.542053,216.493820 710.927368,218.714706 719.046570,222.346664   C722.247192,223.778442 723.141174,225.279358 720.819031,228.296692   C718.486084,231.328171 716.470703,234.604019 714.114258,238.069687  z"/>
<path fill="#ffffff" opacity="1.000000" stroke="none" d=" M500.467285,292.510376   C494.055328,285.255096 490.767761,277.255646 490.421967,267.782532   C490.165833,260.764709 489.986816,253.726288 491.026215,246.862976   C493.691223,229.265823 509.345917,216.115936 528.303345,215.140167   C539.886963,214.543915 550.680908,217.770416 561.011719,222.757309   C562.734985,223.589142 564.564636,224.642075 563.039001,226.893799   C557.008728,235.794449 550.866821,244.619461 544.663879,253.621277   C542.682800,251.735855 544.105286,250.464539 544.533142,249.230591   C546.553040,243.404663 548.561157,237.551422 548.568787,231.314941   C548.579956,222.181778 543.813965,217.464218 534.728638,217.288910   C533.397217,217.263214 532.064514,217.296692 530.732544,217.310196   C523.207764,217.386505 520.211670,220.314621 520.190735,227.967957   C520.133972,248.781570 520.162231,269.595398 520.168762,290.409149   C520.169312,292.239471 520.085815,294.093994 520.340149,295.895111   C520.893066,299.809082 523.187012,302.237244 527.153870,302.733734   C539.464355,304.274475 549.422424,300.697388 556.161316,289.641998   C559.223816,284.617981 561.457703,279.284332 563.464661,273.810822   C563.844238,272.775726 563.706726,271.406281 565.905029,270.965881   C565.171448,278.753632 565.597717,286.420929 564.085754,293.974762   C563.780518,295.499481 562.406799,296.448700 561.134338,297.238251   C544.964050,307.271820 516.591125,310.296051 500.467285,292.510376  z"/>
<path fill="#ffffff" opacity="1.000000" stroke="none" d=" M435.974213,290.402313   C437.963684,292.392792 435.987061,293.039825 434.963013,293.862152   C432.814423,295.587433 430.547882,297.165771 428.500824,299.092102   C433.225464,297.478088 437.031647,293.765808 442.465698,292.912689   C442.439026,296.504639 439.206482,296.337128 437.726074,298.271179   C441.679810,299.872650 446.142517,297.244263 450.305908,299.816376   C447.012238,302.518250 443.094971,300.548431 440.158722,302.495911   C441.694946,304.164673 444.965576,303.159119 446.443726,306.532349   C441.757263,307.494659 437.779205,305.555084 433.052307,304.181152   C435.365601,306.807251 438.851562,306.832489 440.276276,310.973907   C433.379700,309.355560 428.427216,305.333557 421.766083,302.966705   C424.733124,306.746094 429.268921,307.354218 431.145752,311.511963   C427.228424,311.863800 425.103607,309.240173 422.528412,307.764557   C419.958984,306.292297 417.637726,304.366699 413.869293,303.290527   C416.947021,307.947205 422.730072,308.568268 425.321655,313.809753   C417.969025,312.414673 413.819336,306.774750 406.902924,303.966705   C410.513489,308.337189 415.588318,309.876831 417.472443,314.564270   C410.925262,312.680634 406.411285,307.452972 400.513824,304.557709   C403.068695,309.210175 408.760223,310.755249 410.871155,315.836578   C403.844269,313.540985 399.317444,307.190247 391.409546,303.656860   C394.841187,308.949524 399.653137,310.918854 401.683929,315.537872   C395.067047,313.732178 391.535736,307.388916 384.809937,303.767548   C387.261078,309.365601 392.549774,311.540710 394.037048,316.579468   C387.362122,314.524323 384.646606,307.192078 377.613861,303.792358   C379.516052,309.518036 383.900391,312.287354 385.974243,316.709442   C382.658417,316.727051 382.795746,316.614960 377.910828,310.630432   C375.926880,308.199890 375.214020,303.893799 370.166901,304.380157   C371.426056,308.900696 375.324768,311.784576 376.968018,317.003387   C370.214508,314.298065 369.705292,307.168274 364.166992,303.615997   C365.015472,309.333191 369.296967,312.383667 371.136536,317.733093   C363.536743,314.939392 364.258667,305.412262 357.354034,303.289825   C355.719208,306.125885 359.157623,307.582550 358.083984,309.819305   C356.927155,310.751129 355.970367,309.920990 355.662964,309.088013   C353.240387,302.523499 347.698578,302.476196 342.114227,302.361969   C340.428925,302.327515 338.505035,302.752014 336.965851,300.557922   C341.497009,298.885956 345.783905,299.684509 349.928284,299.872253   C355.026581,300.103149 355.447144,293.438477 360.206848,293.167511   C361.165955,296.608276 356.754242,297.233002 357.082794,300.617371   C363.707703,299.646759 364.805542,291.536804 371.500824,289.851562   C371.076935,294.746429 366.086670,295.910248 364.867950,299.963074   C370.610016,298.232788 372.608307,291.449402 378.968933,289.926727   C378.014160,295.124756 372.753693,296.251282 370.729645,300.858673   C377.356934,299.408081 379.594574,292.732910 385.892303,290.451813   C385.091064,295.757996 380.694214,297.005524 378.753754,300.342712   C383.634369,297.985474 386.628662,292.638184 392.719635,290.625824   C391.841125,295.733490 386.672241,296.405060 385.214111,300.704041   C391.071167,298.296570 393.463898,291.601776 400.201111,289.729004   C398.612213,294.784058 394.168793,296.408569 391.979034,300.639069   C398.726746,298.951172 401.183777,291.777649 407.926056,289.831512   C406.812836,295.005646 401.687622,296.148346 399.653717,300.799805   C407.016022,297.529449 410.418854,289.980652 417.982849,288.320282   C415.760193,293.353912 410.384277,295.449463 406.858887,300.147156   C413.109314,297.423340 416.323669,291.118988 422.715576,289.540314   C421.320038,293.923737 417.022339,295.846313 414.742279,299.479767   C420.432678,295.693970 425.129486,290.502655 431.767792,288.087769   C430.030701,293.403900 423.878082,294.436401 420.720764,300.153229   C427.084534,297.640961 430.268555,292.204773 435.974213,290.402313  z"/>
<path fill="#ffffff" opacity="1.000000" stroke="none" d=" M388.688721,238.384094   C398.496185,233.962906 407.177856,235.633133 414.145996,242.922958   C421.863922,250.997223 424.125000,260.788605 419.837891,271.456299   C416.004028,280.996246 408.718018,286.388611 398.500488,286.900848   C382.178528,287.719208 369.855469,268.094330 376.378021,252.030685   C378.764862,246.152420 382.477753,241.381958 388.688721,238.384094  M409.249237,274.748474   C415.730194,265.914215 416.198822,258.124359 410.743500,249.909561   C404.494080,240.499008 391.185791,240.726776 385.451599,250.432770   C382.374298,255.641556 381.465546,261.201172 383.142639,267.189484   C386.610565,279.572266 398.944366,283.519226 409.249237,274.748474  z"/>
<path fill="#ffffff" opacity="1.000000" stroke="none" d=" M454.951294,236.631226   C459.564545,236.756454 463.736420,236.167465 467.595367,238.495590   C473.653809,242.150635 476.926758,249.528275 475.325592,256.518097   C473.607147,264.020020 468.475281,268.325592 460.491241,269.069550   C456.380920,269.452545 451.332489,267.452362 448.376190,270.128845   C445.302734,272.911438 447.492188,278.030762 447.198700,282.109985   C446.995056,284.940521 446.102692,286.367737 443.020203,286.331390   C439.755219,286.292847 439.092407,284.350128 439.113892,281.776733   C439.230591,267.786774 439.413025,253.797363 439.515320,239.807343   C439.533112,237.372009 440.797638,236.631134 442.966705,236.645050   C446.798431,236.669632 450.630554,236.638474 454.951294,236.631226  M447.190369,247.005753   C447.174103,248.168579 447.118866,249.332382 447.147583,250.494095   C447.461884,263.210876 444.638824,261.955505 459.464447,261.950409   C462.484741,261.949371 464.984497,260.953217 466.635071,258.268524   C469.237427,254.035645 468.143646,247.375427 464.397766,244.743698   C460.649811,242.110519 449.757812,242.685638 447.386658,245.650864   C447.293823,245.766937 447.309662,245.969879 447.190369,247.005753  z"/>
</svg>