<svg xmlns="http://www.w3.org/2000/svg" width="722" height="754" viewBox="0 0 722 754" version="1.1"><path d="M 318 11.776 C 313.203 12.069, 311.772 12.327, 225 28.525 C 193.925 34.326, 161.509 40.376, 152.964 41.970 C 132.630 45.763, 128.349 47.478, 117.609 56.130 C 98.603 71.442, 92.784 78.884, 89.352 92.265 C 86.794 102.237, 87.922 111.453, 94.337 133 C 99.562 150.547, 122.460 228.502, 152.497 331 C 159.992 356.575, 169.668 389.425, 174 404 C 178.332 418.575, 190.923 461.325, 201.980 499 C 213.036 536.675, 223.220 569.859, 224.611 572.743 C 233.564 591.304, 252.364 604, 270.896 604 C 277.273 604, 298.131 598.922, 320 592.044 C 328.525 589.363, 359.575 579.670, 389 570.504 C 487.629 539.780, 483.503 541.259, 491.731 533.687 C 500.063 526.019, 504.709 516.243, 505.815 504.048 L 506.500 496.500 537 496.297 L 567.500 496.094 603.745 485.047 C 623.680 478.971, 640.282 474, 640.638 474 C 640.994 474, 641.007 471.413, 640.667 468.250 C 640.008 462.109, 626.877 344.952, 617.047 257.500 C 613.770 228.350, 609.047 186.315, 606.551 164.089 C 604.054 141.863, 601.897 123.570, 601.756 123.438 C 601.615 123.306, 591.825 122.591, 580 121.849 L 558.500 120.500 557.222 115 C 549.433 81.486, 534.902 59.035, 514.500 48.996 C 505.219 44.429, 497.842 42.871, 485.500 42.871 C 473.015 42.871, 465.638 44.462, 456.434 49.138 L 450.369 52.220 445.088 49.545 C 424.839 39.284, 397.550 41.234, 379.333 54.244 C 375.135 57.242, 373 57.249, 373 54.264 C 373 53.374, 371.141 48.788, 368.868 44.073 C 365.589 37.270, 363.140 33.922, 357.005 27.854 C 345.156 16.134, 332.438 10.891, 318 11.776 M 255.500 45.927 C 242.300 48.533, 230.536 50.980, 229.358 51.366 C 228.179 51.751, 226.650 53.430, 225.960 55.097 C 224.860 57.753, 224.951 58.459, 226.701 60.814 C 227.924 62.459, 229.822 63.603, 231.599 63.767 C 233.194 63.914, 245.948 61.822, 259.939 59.118 C 286.717 53.944, 288 53.448, 288 48.263 C 288 45.441, 283.811 40.962, 281.295 41.094 C 280.308 41.146, 268.700 43.321, 255.500 45.927 M 206.357 55.001 C 203.472 56.153, 201 59.866, 201 63.048 C 201 65.675, 204.013 69.177, 207.259 70.323 C 209.478 71.107, 213.934 69.451, 215.637 67.211 C 220.037 61.419, 213.110 52.305, 206.357 55.001 M 403.112 59.517 C 396.123 61.479, 387.475 66.166, 382.739 70.559 L 378.978 74.047 381.929 83.274 C 383.552 88.348, 386.039 96.373, 387.457 101.107 L 390.034 109.714 396.767 110.350 C 400.470 110.700, 405.750 110.988, 408.500 110.992 L 413.500 110.998 416.817 101.249 C 421.366 87.876, 426.135 78.249, 432.136 70.321 C 436.866 64.071, 437.084 63.535, 435.399 62.302 C 430.269 58.551, 412.128 56.986, 403.112 59.517 M 478 58.690 C 472.694 59.576, 465 62.097, 465 62.950 C 465 63.442, 467.824 67.592, 471.275 72.172 C 478.432 81.671, 485.433 94.837, 489.528 106.500 C 491.074 110.900, 492.698 114.979, 493.138 115.565 C 493.984 116.691, 540.648 119.685, 541.655 118.678 C 542.768 117.565, 536.833 99.328, 532.323 90 C 528.526 82.147, 526.323 79.096, 519.615 72.399 C 513.145 65.941, 510.291 63.850, 505.534 62.083 C 495.663 58.416, 486.444 57.280, 478 58.690 M 326 62.680 C 324.075 62.878, 319.350 63.693, 315.500 64.490 C 311.650 65.288, 294.100 68.681, 276.500 72.031 C 258.900 75.381, 229.425 81.045, 211 84.618 C 192.575 88.190, 172.775 92.010, 167 93.105 C 149.589 96.407, 141.902 101.581, 136.135 113.880 C 133.868 118.716, 133.500 120.825, 133.500 129 C 133.500 138.108, 133.885 139.780, 142.835 169.500 C 147.970 186.550, 156.440 214.900, 161.658 232.500 C 166.876 250.100, 174.681 276.425, 179.002 291 C 183.322 305.575, 197.203 352.375, 209.848 395 C 222.492 437.625, 237.622 488.700, 243.469 508.500 C 249.317 528.300, 255.224 546.836, 256.596 549.692 C 262.329 561.625, 275.708 571.392, 288.067 572.668 C 295.465 573.431, 297.179 572.960, 370.500 549.991 C 385.481 545.297, 407.094 538.614, 435 530.044 C 449.575 525.568, 463.525 521.173, 466 520.278 C 472.407 517.960, 481.122 508.973, 483.737 501.989 C 484.867 498.970, 485.630 496.233, 485.434 495.907 C 485.237 495.581, 479.096 495.023, 471.788 494.668 C 425.960 492.439, 372.762 481.455, 345.500 468.592 L 336.500 464.345 331.329 451.423 C 321.604 427.117, 276.814 314.525, 270.402 298.265 C 266.881 289.335, 264 281.143, 264 280.059 C 264 276.167, 289.925 123.677, 290.704 122.991 C 291.567 122.230, 335.579 114, 338.783 114 C 340.322 114, 341.422 112.150, 343.984 105.250 C 345.771 100.438, 349.727 91.800, 352.775 86.056 L 358.317 75.613 354.408 72.212 C 349.026 67.529, 342.508 64.380, 335.526 63.089 C 332.285 62.490, 329.603 62.072, 329.566 62.160 C 329.530 62.248, 327.925 62.482, 326 62.680 M 445.494 79.115 C 440.374 86.070, 435.915 94.960, 432.480 105.058 L 430.122 111.992 432.311 112.453 C 436.015 113.232, 475.161 115.172, 475.728 114.605 C 476.367 113.966, 472.813 104.816, 468.696 96.500 C 463.671 86.348, 453.589 73, 450.947 73 C 450.424 73, 447.970 75.752, 445.494 79.115 M 366.621 91.712 C 365.494 92.839, 359 107.048, 359 108.387 C 359 109.252, 360.913 109.478, 365.750 109.181 C 369.462 108.954, 372.641 108.642, 372.814 108.487 C 373.159 108.177, 368.044 91, 367.606 91 C 367.456 91, 367.013 91.320, 366.621 91.712 M 159.500 641.114 C 156.200 641.593, 152.938 642.199, 152.250 642.461 C 151.279 642.831, 151 651.864, 151 682.969 L 151 723 159.481 723 L 167.962 723 168.231 700.250 L 168.500 677.500 172.920 677.184 C 184.161 676.381, 185.079 678.274, 185.768 703.686 L 186.292 723 194.778 723 L 203.264 723 202.738 701.750 C 202.128 677.088, 201.193 673.033, 194.863 667.615 C 189.653 663.155, 183.705 661.567, 174.959 662.300 L 168 662.884 168 651.442 C 168 642.890, 167.684 640.031, 166.750 640.122 C 166.063 640.189, 162.800 640.636, 159.500 641.114 M 103.500 644.938 C 87.757 648.788, 81.179 662.309, 88.078 676.638 C 90.660 682.002, 95.224 685.070, 108.050 690.064 C 121.839 695.433, 126.229 699.636, 124.047 705.377 C 121.914 710.987, 107.390 711.463, 90.463 706.478 C 88.652 705.945, 88.285 706.559, 87.164 711.983 C 86.471 715.341, 85.673 718.688, 85.392 719.422 C 84.475 721.809, 97.995 724.487, 111 724.494 C 125.204 724.501, 131.263 722.608, 137.019 716.364 C 146.296 706.300, 144.068 690.711, 132.280 683.202 C 129.651 681.528, 123.225 678.460, 118 676.385 C 103.998 670.826, 99.817 665.649, 105.635 661.073 C 109.081 658.362, 118.927 658.275, 128.292 660.871 C 132.004 661.901, 135.190 662.463, 135.371 662.121 C 135.553 661.780, 136.289 658.645, 137.007 655.156 C 138.551 647.655, 138.657 647.779, 128.803 645.529 C 121.897 643.952, 108.783 643.646, 103.500 644.938 M 353.281 645.435 C 342.819 647.970, 336.887 654.411, 336.195 663.988 C 335.514 673.391, 338.576 679.844, 345.875 684.391 C 347.869 685.633, 354 688.381, 359.500 690.499 C 365.203 692.694, 370.682 695.529, 372.250 697.097 C 375.559 700.405, 375.885 704.889, 373.006 707.495 C 369.953 710.258, 358.131 710.697, 348.359 708.410 C 344.036 707.399, 340.079 706.556, 339.564 706.536 C 339.049 706.516, 337.854 709.565, 336.909 713.311 L 335.190 720.122 337.808 721.117 C 348.094 725.028, 368.982 725.738, 377.976 722.482 C 390.986 717.773, 396.401 704.845, 390.590 692.367 C 387.631 686.012, 383.473 683.071, 368.208 676.540 C 353.280 670.154, 350.123 666.003, 356.198 660.750 C 358.881 658.430, 370.081 658.484, 379.194 660.862 L 385.888 662.608 387.110 655.770 C 387.850 651.634, 387.970 648.581, 387.416 648.044 C 385.849 646.524, 371.398 643.996, 364.792 644.085 C 361.331 644.132, 356.151 644.739, 353.281 645.435 M 595.696 648.732 L 591.893 649.127 592.196 679.344 C 592.499 709.413, 592.512 709.585, 595.025 714.463 C 596.873 718.051, 598.748 720.010, 602.025 721.771 C 606.116 723.971, 607.380 724.141, 616.753 723.753 C 622.392 723.519, 627.284 723.049, 627.624 722.709 C 627.965 722.368, 627.705 719.238, 627.048 715.752 L 625.852 709.415 619.535 709.817 C 614.124 710.161, 612.917 709.917, 611.110 708.110 C 609.166 706.166, 609 704.907, 609 692.095 L 609 678.190 612.936 678.718 C 615.101 679.009, 618.926 678.938, 621.436 678.562 L 626 677.877 626 671.439 L 626 665 617.500 665 L 609 665 609 656.500 L 609 648 604.250 648.168 C 601.638 648.261, 597.788 648.514, 595.696 648.732 M 230 662.876 C 216.263 667.396, 208.912 677.737, 208.736 692.787 C 208.579 706.313, 214.010 716.378, 224.362 721.743 C 228.639 723.959, 230.841 724.413, 237.500 724.448 C 244.323 724.485, 246.356 724.071, 251.323 721.636 C 260.797 716.991, 265.799 708.645, 266.714 695.950 C 268.097 676.767, 257.115 663.143, 239.643 662.369 C 235.714 662.195, 231.375 662.423, 230 662.876 M 285.269 663.141 C 281.841 663.633, 277.904 664.466, 276.519 664.993 L 274 665.950 274 704.975 L 274 744 282.500 744 L 291 744 291 733.679 L 291 723.359 299.524 723.806 C 306.063 724.149, 309.115 723.846, 312.629 722.504 C 323.367 718.403, 329.099 709.519, 329.792 695.902 C 330.428 683.413, 328.376 677.008, 321.635 670.444 C 313.625 662.644, 303.250 660.561, 285.269 663.141 M 416 662.468 C 415.175 662.662, 411.238 663.351, 407.250 664.001 L 400 665.182 400 694.091 L 400 723 408.500 723 L 417 723 417 700 L 417 677 422.345 677 C 431.307 677, 431.444 677.363, 431.806 702.103 L 432.112 723 440.588 723 L 449.064 723 448.961 700.853 C 448.846 676.399, 448.675 677.042, 455.316 677.015 C 464.001 676.980, 464.987 679.805, 464.994 704.750 L 465 723 473.500 723 L 482 723 482 704.636 C 482 694.537, 481.543 683.863, 480.984 680.917 C 479.025 670.587, 474.532 665.317, 465.599 662.875 C 460.212 661.402, 448.731 663.083, 444.917 665.904 L 442.155 667.946 437.418 665.298 C 433.658 663.197, 431.115 662.596, 425.091 662.384 C 420.916 662.237, 416.825 662.275, 416 662.468 M 501.026 663.141 C 498.015 663.640, 495.147 664.453, 494.651 664.949 C 494.122 665.478, 494.112 668.250, 494.627 671.675 L 495.504 677.500 499.502 677 C 501.701 676.725, 506.802 676.500, 510.838 676.500 C 517.639 676.500, 518.353 676.705, 520.588 679.306 C 521.915 680.849, 523 683.160, 523 684.441 C 523 686.685, 522.773 686.751, 516.729 686.266 C 505.212 685.342, 495.515 688.678, 490.657 695.237 C 487.444 699.573, 487.249 708.387, 490.241 714 C 493.986 721.025, 499.074 723.358, 511.693 723.836 C 517.300 724.049, 525.737 723.676, 530.443 723.008 L 539 721.793 538.994 701.147 C 538.991 689.169, 538.525 678.830, 537.885 676.523 C 534.683 664.989, 520.640 659.891, 501.026 663.141 M 565.500 662.655 C 564.400 662.887, 560.237 663.766, 556.250 664.607 L 549 666.136 549 694.568 L 549 723 557.500 723 L 566 723 566 699.853 L 566 676.706 575.340 677.263 L 584.680 677.821 585.820 671.691 C 586.447 668.319, 586.599 665.199, 586.156 664.756 C 584.369 662.969, 570.626 661.571, 565.500 662.655 M 231.289 678.772 C 228.096 681.268, 226 687.104, 226 693.500 C 226 704.240, 231.005 710.585, 238.791 709.716 C 241.150 709.452, 243.946 708.454, 245.003 707.497 C 251.069 702.008, 250.620 683.993, 244.293 679.016 C 241.080 676.488, 234.372 676.363, 231.289 678.772 M 291.667 677.667 C 291.300 678.033, 291 685.019, 291 693.191 L 291 708.050 293.565 709.025 C 297.150 710.388, 301.490 710.240, 305.360 708.623 C 309.852 706.746, 312.424 701.240, 312.424 693.500 C 312.424 685.924, 310.012 680.708, 305.522 678.577 C 302.212 677.007, 292.936 676.397, 291.667 677.667 M 511 697.727 C 507.190 698.421, 505 700.928, 505 704.598 C 505 709.357, 507.880 711, 516.223 711 L 523 711 523 704.625 C 523 698.285, 522.983 698.247, 519.875 697.625 C 516.585 696.967, 515.082 696.984, 511 697.727 M 637.357 704.992 C 632.367 707.005, 630.494 714.187, 633.463 719.928 C 635.168 723.225, 636.797 724.012, 641.832 723.968 C 647.558 723.919, 651 720.176, 651 714 C 651 709.816, 649.543 707.332, 646.020 705.510 C 642.777 703.834, 640.556 703.701, 637.357 704.992" stroke="none" fill="#ef852c" fill-rule="evenodd"/><path d="M 0 377.001 L 0 754.003 361.250 753.751 L 722.500 753.500 722.751 376.750 L 723.003 0 361.501 0 L 0 0 0 377.001 M 0.495 377.500 C 0.495 584.850, 0.610 669.824, 0.750 566.331 C 0.890 462.839, 0.890 293.189, 0.750 189.331 C 0.610 85.474, 0.495 170.150, 0.495 377.500 M 318 11.776 C 313.203 12.069, 311.772 12.327, 225 28.525 C 193.925 34.326, 161.509 40.376, 152.964 41.970 C 132.630 45.763, 128.349 47.478, 117.609 56.130 C 98.603 71.442, 92.784 78.884, 89.352 92.265 C 86.794 102.237, 87.922 111.453, 94.337 133 C 99.562 150.547, 122.460 228.502, 152.497 331 C 159.992 356.575, 169.668 389.425, 174 404 C 178.332 418.575, 190.923 461.325, 201.980 499 C 213.036 536.675, 223.220 569.859, 224.611 572.743 C 233.564 591.304, 252.364 604, 270.896 604 C 277.273 604, 298.131 598.922, 320 592.044 C 328.525 589.363, 359.575 579.670, 389 570.504 C 487.629 539.780, 483.503 541.259, 491.731 533.687 C 500.063 526.019, 504.709 516.243, 505.815 504.048 L 506.500 496.500 537 496.297 L 567.500 496.094 603.745 485.047 C 623.680 478.971, 640.282 474, 640.638 474 C 640.994 474, 641.007 471.413, 640.667 468.250 C 640.008 462.109, 626.877 344.952, 617.047 257.500 C 613.770 228.350, 609.047 186.315, 606.551 164.089 C 604.054 141.863, 601.897 123.570, 601.756 123.438 C 601.615 123.306, 591.825 122.591, 580 121.849 L 558.500 120.500 557.222 115 C 549.433 81.486, 534.902 59.035, 514.500 48.996 C 505.219 44.429, 497.842 42.871, 485.500 42.871 C 473.015 42.871, 465.638 44.462, 456.434 49.138 L 450.369 52.220 445.088 49.545 C 424.839 39.284, 397.550 41.234, 379.333 54.244 C 375.135 57.242, 373 57.249, 373 54.264 C 373 53.374, 371.141 48.788, 368.868 44.073 C 365.589 37.270, 363.140 33.922, 357.005 27.854 C 345.156 16.134, 332.438 10.891, 318 11.776 M 255.500 45.927 C 242.300 48.533, 230.536 50.980, 229.358 51.366 C 228.179 51.751, 226.650 53.430, 225.960 55.097 C 224.860 57.753, 224.951 58.459, 226.701 60.814 C 227.924 62.459, 229.822 63.603, 231.599 63.767 C 233.194 63.914, 245.948 61.822, 259.939 59.118 C 286.717 53.944, 288 53.448, 288 48.263 C 288 45.441, 283.811 40.962, 281.295 41.094 C 280.308 41.146, 268.700 43.321, 255.500 45.927 M 206.357 55.001 C 203.472 56.153, 201 59.866, 201 63.048 C 201 65.675, 204.013 69.177, 207.259 70.323 C 209.478 71.107, 213.934 69.451, 215.637 67.211 C 220.037 61.419, 213.110 52.305, 206.357 55.001 M 403.112 59.517 C 396.123 61.479, 387.475 66.166, 382.739 70.559 L 378.978 74.047 381.929 83.274 C 383.552 88.348, 386.039 96.373, 387.457 101.107 L 390.034 109.714 396.767 110.350 C 400.470 110.700, 405.750 110.988, 408.500 110.992 L 413.500 110.998 416.817 101.249 C 421.366 87.876, 426.135 78.249, 432.136 70.321 C 436.866 64.071, 437.084 63.535, 435.399 62.302 C 430.269 58.551, 412.128 56.986, 403.112 59.517 M 478 58.690 C 472.694 59.576, 465 62.097, 465 62.950 C 465 63.442, 467.824 67.592, 471.275 72.172 C 478.432 81.671, 485.433 94.837, 489.528 106.500 C 491.074 110.900, 492.698 114.979, 493.138 115.565 C 493.984 116.691, 540.648 119.685, 541.655 118.678 C 542.768 117.565, 536.833 99.328, 532.323 90 C 528.526 82.147, 526.323 79.096, 519.615 72.399 C 513.145 65.941, 510.291 63.850, 505.534 62.083 C 495.663 58.416, 486.444 57.280, 478 58.690 M 326 62.680 C 324.075 62.878, 319.350 63.693, 315.500 64.490 C 311.650 65.288, 294.100 68.681, 276.500 72.031 C 258.900 75.381, 229.425 81.045, 211 84.618 C 192.575 88.190, 172.775 92.010, 167 93.105 C 149.589 96.407, 141.902 101.581, 136.135 113.880 C 133.868 118.716, 133.500 120.825, 133.500 129 C 133.500 138.108, 133.885 139.780, 142.835 169.500 C 147.970 186.550, 156.440 214.900, 161.658 232.500 C 166.876 250.100, 174.681 276.425, 179.002 291 C 183.322 305.575, 197.203 352.375, 209.848 395 C 222.492 437.625, 237.622 488.700, 243.469 508.500 C 249.317 528.300, 255.224 546.836, 256.596 549.692 C 262.329 561.625, 275.708 571.392, 288.067 572.668 C 295.465 573.431, 297.179 572.960, 370.500 549.991 C 385.481 545.297, 407.094 538.614, 435 530.044 C 449.575 525.568, 463.525 521.173, 466 520.278 C 472.407 517.960, 481.122 508.973, 483.737 501.989 C 484.867 498.970, 485.630 496.233, 485.434 495.907 C 485.237 495.581, 479.096 495.023, 471.788 494.668 C 425.960 492.439, 372.762 481.455, 345.500 468.592 L 336.500 464.345 331.329 451.423 C 321.604 427.117, 276.814 314.525, 270.402 298.265 C 266.881 289.335, 264 281.143, 264 280.059 C 264 276.167, 289.925 123.677, 290.704 122.991 C 291.567 122.230, 335.579 114, 338.783 114 C 340.322 114, 341.422 112.150, 343.984 105.250 C 345.771 100.438, 349.727 91.800, 352.775 86.056 L 358.317 75.613 354.408 72.212 C 349.026 67.529, 342.508 64.380, 335.526 63.089 C 332.285 62.490, 329.603 62.072, 329.566 62.160 C 329.530 62.248, 327.925 62.482, 326 62.680 M 445.494 79.115 C 440.374 86.070, 435.915 94.960, 432.480 105.058 L 430.122 111.992 432.311 112.453 C 436.015 113.232, 475.161 115.172, 475.728 114.605 C 476.367 113.966, 472.813 104.816, 468.696 96.500 C 463.671 86.348, 453.589 73, 450.947 73 C 450.424 73, 447.970 75.752, 445.494 79.115 M 366.621 91.712 C 365.494 92.839, 359 107.048, 359 108.387 C 359 109.252, 360.913 109.478, 365.750 109.181 C 369.462 108.954, 372.641 108.642, 372.814 108.487 C 373.159 108.177, 368.044 91, 367.606 91 C 367.456 91, 367.013 91.320, 366.621 91.712 M 159.500 641.114 C 156.200 641.593, 152.938 642.199, 152.250 642.461 C 151.279 642.831, 151 651.864, 151 682.969 L 151 723 159.481 723 L 167.962 723 168.231 700.250 L 168.500 677.500 172.920 677.184 C 184.161 676.381, 185.079 678.274, 185.768 703.686 L 186.292 723 194.778 723 L 203.264 723 202.738 701.750 C 202.128 677.088, 201.193 673.033, 194.863 667.615 C 189.653 663.155, 183.705 661.567, 174.959 662.300 L 168 662.884 168 651.442 C 168 642.890, 167.684 640.031, 166.750 640.122 C 166.063 640.189, 162.800 640.636, 159.500 641.114 M 103.500 644.938 C 87.757 648.788, 81.179 662.309, 88.078 676.638 C 90.660 682.002, 95.224 685.070, 108.050 690.064 C 121.839 695.433, 126.229 699.636, 124.047 705.377 C 121.914 710.987, 107.390 711.463, 90.463 706.478 C 88.652 705.945, 88.285 706.559, 87.164 711.983 C 86.471 715.341, 85.673 718.688, 85.392 719.422 C 84.475 721.809, 97.995 724.487, 111 724.494 C 125.204 724.501, 131.263 722.608, 137.019 716.364 C 146.296 706.300, 144.068 690.711, 132.280 683.202 C 129.651 681.528, 123.225 678.460, 118 676.385 C 103.998 670.826, 99.817 665.649, 105.635 661.073 C 109.081 658.362, 118.927 658.275, 128.292 660.871 C 132.004 661.901, 135.190 662.463, 135.371 662.121 C 135.553 661.780, 136.289 658.645, 137.007 655.156 C 138.551 647.655, 138.657 647.779, 128.803 645.529 C 121.897 643.952, 108.783 643.646, 103.500 644.938 M 353.281 645.435 C 342.819 647.970, 336.887 654.411, 336.195 663.988 C 335.514 673.391, 338.576 679.844, 345.875 684.391 C 347.869 685.633, 354 688.381, 359.500 690.499 C 365.203 692.694, 370.682 695.529, 372.250 697.097 C 375.559 700.405, 375.885 704.889, 373.006 707.495 C 369.953 710.258, 358.131 710.697, 348.359 708.410 C 344.036 707.399, 340.079 706.556, 339.564 706.536 C 339.049 706.516, 337.854 709.565, 336.909 713.311 L 335.190 720.122 337.808 721.117 C 348.094 725.028, 368.982 725.738, 377.976 722.482 C 390.986 717.773, 396.401 704.845, 390.590 692.367 C 387.631 686.012, 383.473 683.071, 368.208 676.540 C 353.280 670.154, 350.123 666.003, 356.198 660.750 C 358.881 658.430, 370.081 658.484, 379.194 660.862 L 385.888 662.608 387.110 655.770 C 387.850 651.634, 387.970 648.581, 387.416 648.044 C 385.849 646.524, 371.398 643.996, 364.792 644.085 C 361.331 644.132, 356.151 644.739, 353.281 645.435 M 595.696 648.732 L 591.893 649.127 592.196 679.344 C 592.499 709.413, 592.512 709.585, 595.025 714.463 C 596.873 718.051, 598.748 720.010, 602.025 721.771 C 606.116 723.971, 607.380 724.141, 616.753 723.753 C 622.392 723.519, 627.284 723.049, 627.624 722.709 C 627.965 722.368, 627.705 719.238, 627.048 715.752 L 625.852 709.415 619.535 709.817 C 614.124 710.161, 612.917 709.917, 611.110 708.110 C 609.166 706.166, 609 704.907, 609 692.095 L 609 678.190 612.936 678.718 C 615.101 679.009, 618.926 678.938, 621.436 678.562 L 626 677.877 626 671.439 L 626 665 617.500 665 L 609 665 609 656.500 L 609 648 604.250 648.168 C 601.638 648.261, 597.788 648.514, 595.696 648.732 M 230 662.876 C 216.263 667.396, 208.912 677.737, 208.736 692.787 C 208.579 706.313, 214.010 716.378, 224.362 721.743 C 228.639 723.959, 230.841 724.413, 237.500 724.448 C 244.323 724.485, 246.356 724.071, 251.323 721.636 C 260.797 716.991, 265.799 708.645, 266.714 695.950 C 268.097 676.767, 257.115 663.143, 239.643 662.369 C 235.714 662.195, 231.375 662.423, 230 662.876 M 285.269 663.141 C 281.841 663.633, 277.904 664.466, 276.519 664.993 L 274 665.950 274 704.975 L 274 744 282.500 744 L 291 744 291 733.679 L 291 723.359 299.524 723.806 C 306.063 724.149, 309.115 723.846, 312.629 722.504 C 323.367 718.403, 329.099 709.519, 329.792 695.902 C 330.428 683.413, 328.376 677.008, 321.635 670.444 C 313.625 662.644, 303.250 660.561, 285.269 663.141 M 416 662.468 C 415.175 662.662, 411.238 663.351, 407.250 664.001 L 400 665.182 400 694.091 L 400 723 408.500 723 L 417 723 417 700 L 417 677 422.345 677 C 431.307 677, 431.444 677.363, 431.806 702.103 L 432.112 723 440.588 723 L 449.064 723 448.961 700.853 C 448.846 676.399, 448.675 677.042, 455.316 677.015 C 464.001 676.980, 464.987 679.805, 464.994 704.750 L 465 723 473.500 723 L 482 723 482 704.636 C 482 694.537, 481.543 683.863, 480.984 680.917 C 479.025 670.587, 474.532 665.317, 465.599 662.875 C 460.212 661.402, 448.731 663.083, 444.917 665.904 L 442.155 667.946 437.418 665.298 C 433.658 663.197, 431.115 662.596, 425.091 662.384 C 420.916 662.237, 416.825 662.275, 416 662.468 M 501.026 663.141 C 498.015 663.640, 495.147 664.453, 494.651 664.949 C 494.122 665.478, 494.112 668.250, 494.627 671.675 L 495.504 677.500 499.502 677 C 501.701 676.725, 506.802 676.500, 510.838 676.500 C 517.639 676.500, 518.353 676.705, 520.588 679.306 C 521.915 680.849, 523 683.160, 523 684.441 C 523 686.685, 522.773 686.751, 516.729 686.266 C 505.212 685.342, 495.515 688.678, 490.657 695.237 C 487.444 699.573, 487.249 708.387, 490.241 714 C 493.986 721.025, 499.074 723.358, 511.693 723.836 C 517.300 724.049, 525.737 723.676, 530.443 723.008 L 539 721.793 538.994 701.147 C 538.991 689.169, 538.525 678.830, 537.885 676.523 C 534.683 664.989, 520.640 659.891, 501.026 663.141 M 565.500 662.655 C 564.400 662.887, 560.237 663.766, 556.250 664.607 L 549 666.136 549 694.568 L 549 723 557.500 723 L 566 723 566 699.853 L 566 676.706 575.340 677.263 L 584.680 677.821 585.820 671.691 C 586.447 668.319, 586.599 665.199, 586.156 664.756 C 584.369 662.969, 570.626 661.571, 565.500 662.655 M 231.289 678.772 C 228.096 681.268, 226 687.104, 226 693.500 C 226 704.240, 231.005 710.585, 238.791 709.716 C 241.150 709.452, 243.946 708.454, 245.003 707.497 C 251.069 702.008, 250.620 683.993, 244.293 679.016 C 241.080 676.488, 234.372 676.363, 231.289 678.772 M 291.667 677.667 C 291.300 678.033, 291 685.019, 291 693.191 L 291 708.050 293.565 709.025 C 297.150 710.388, 301.490 710.240, 305.360 708.623 C 309.852 706.746, 312.424 701.240, 312.424 693.500 C 312.424 685.924, 310.012 680.708, 305.522 678.577 C 302.212 677.007, 292.936 676.397, 291.667 677.667 M 511 697.727 C 507.190 698.421, 505 700.928, 505 704.598 C 505 709.357, 507.880 711, 516.223 711 L 523 711 523 704.625 C 523 698.285, 522.983 698.247, 519.875 697.625 C 516.585 696.967, 515.082 696.984, 511 697.727 M 637.357 704.992 C 632.367 707.005, 630.494 714.187, 633.463 719.928 C 635.168 723.225, 636.797 724.012, 641.832 723.968 C 647.558 723.919, 651 720.176, 651 714 C 651 709.816, 649.543 707.332, 646.020 705.510 C 642.777 703.834, 640.556 703.701, 637.357 704.992" stroke="none" fill="#f5e7f2" fill-rule="evenodd"/></svg>
